<svg xmlns="http://www.w3.org/2000/svg" viewBox="0 0 800 260">
  <defs>
    <style>
      @import url('https://fonts.googleapis.com/css2?family=Fira+Code:wght@400;700&amp;display=swap');
      .bg { fill: #0a0a0b; }
      .chrome-bg { fill: #161618; }
      .dot-red { fill: #ff5f56; }
      .dot-yellow { fill: #ffbd2e; }
      .dot-green { fill: #27c93f; }
      .brand { fill: #4ade80; font-family: 'Fira Code', 'JetBrains Mono', 'SF Mono', monospace; font-size: 48px; font-weight: 700; letter-spacing: 3px; }
      .tagline { fill: #888888; font-family: 'Fira Code', 'JetBrains Mono', 'SF Mono', monospace; font-size: 14px; }
      .cursor { fill: #4ade80; opacity: 0.9; }
      .xarc { fill: #444448; font-family: 'Fira Code', 'JetBrains Mono', 'SF Mono', monospace; font-size: 11px; }
      .node-structural { fill: #ba68c8; stroke: #d48fd8; stroke-width: 1.5; }
      .node-person { fill: #fff176; stroke: #fff59d; stroke-width: 1.5; }
      .node-goal { fill: #aed581; stroke: #c5e1a5; stroke-width: 1.5; }
      .node-task { fill: #dce775; stroke: #e6ee9c; stroke-width: 1.2; }
      .node-blocker { fill: #e57373; stroke: #ef9a9a; stroke-width: 1.2; }
      .node-event { fill: #90a4ae; stroke: #b0bec5; stroke-width: 1; }
      .edge { stroke: #4a4a52; stroke-width: 1; fill: none; }
      .edge-highlight { stroke: #4ade80; stroke-width: 1.2; fill: none; opacity: 0.5; stroke-dasharray: 3 3; }
    </style>
  </defs>

  <!-- Background -->
  <rect width="800" height="260" rx="8" class="bg"/>

  <!-- Terminal chrome -->
  <rect y="0" width="800" height="32" rx="8" class="chrome-bg"/>
  <rect y="16" width="800" height="16" class="chrome-bg"/>
  <line x1="0" y1="32" x2="800" y2="32" stroke="#222225" stroke-width="1"/>
  <circle cx="20" cy="16" r="5" class="dot-red"/>
  <circle cx="38" cy="16" r="5" class="dot-yellow"/>
  <circle cx="56" cy="16" r="5" class="dot-green"/>

  <!-- Mini knowledge graph (centered around cx=180 per plan) -->
  <!-- Edges first (behind nodes) -->
  <line x1="180" y1="130" x2="240" y2="100" class="edge"/>
  <line x1="180" y1="130" x2="230" y2="165" class="edge"/>
  <line x1="180" y1="130" x2="140" y2="95" class="edge"/>
  <line x1="180" y1="130" x2="135" y2="160" class="edge"/>
  <line x1="240" y1="100" x2="280" y2="75" class="edge"/>
  <line x1="240" y1="100" x2="290" y2="115" class="edge"/>
  <line x1="230" y1="165" x2="270" y2="190" class="edge"/>
  <line x1="230" y1="165" x2="275" y2="150" class="edge"/>
  <line x1="140" y1="95" x2="115" y2="65" class="edge"/>
  <line x1="140" y1="95" x2="100" y2="110" class="edge"/>
  <line x1="135" y1="160" x2="105" y2="190" class="edge"/>
  <line x1="135" y1="160" x2="100" y2="145" class="edge"/>
  <line x1="280" y1="75" x2="315" y2="60" class="edge"/>
  <line x1="290" y1="115" x2="325" y2="105" class="edge"/>
  <line x1="270" y1="190" x2="305" y2="205" class="edge"/>
  <line x1="275" y1="150" x2="315" y2="140" class="edge"/>

  <!-- Highlighted edge from graph to wordmark area -->
  <line x1="325" y1="105" x2="395" y2="120" class="edge-highlight"/>

  <!-- Central node (structural / project) - solid fill, no hollow rings -->
  <circle cx="180" cy="130" r="14" class="node-structural"/>

  <!-- Hop 1 nodes -->
  <circle cx="240" cy="100" r="10" class="node-person"/>
  <circle cx="230" cy="165" r="10" class="node-goal"/>
  <circle cx="140" cy="95" r="9" class="node-person"/>
  <circle cx="135" cy="160" r="10" class="node-goal"/>

  <!-- Hop 2 nodes -->
  <circle cx="280" cy="75" r="6" class="node-task"/>
  <circle cx="290" cy="115" r="6" class="node-task"/>
  <circle cx="270" cy="190" r="5" class="node-blocker"/>
  <circle cx="275" cy="150" r="6" class="node-task"/>
  <circle cx="115" cy="65" r="5" class="node-event"/>
  <circle cx="100" cy="110" r="5" class="node-event"/>
  <circle cx="105" cy="190" r="5" class="node-event"/>
  <circle cx="100" cy="145" r="6" class="node-task"/>

  <!-- Hop 3 (tiny, edge of visibility) -->
  <circle cx="315" cy="60" r="3" class="node-event"/>
  <circle cx="325" cy="105" r="3" class="node-event"/>
  <circle cx="305" cy="205" r="3" class="node-event"/>
  <circle cx="315" cy="140" r="3" class="node-event"/>

  <!-- Brand text (right of graph) -->
  <text x="560" y="125" text-anchor="middle" class="brand">X-BRAIN</text>
  <text x="560" y="155" text-anchor="middle" class="tagline">memory your agent can't forget to use</text>

  <!-- Cursor blink -->
  <rect x="704" y="105" width="3" height="26" class="cursor">
    <animate attributeName="opacity" values="0.9;0;0.9" dur="1.2s" repeatCount="indefinite"/>
  </rect>

  <!-- X-Arc watermark -->
  <text x="775" y="248" text-anchor="end" class="xarc">X-ARC</text>
</svg>
