<svg xmlns="http://www.w3.org/2000/svg" viewBox="0 0 800 260">
  <defs>
    <style>
      @import url('https://fonts.googleapis.com/css2?family=Fira+Code:wght@400;700&amp;display=swap');
      .bg { fill: #0a0a0b; }
      .chrome-bg { fill: #161618; }
      .dot-red { fill: #ff5f56; }
      .dot-yellow { fill: #ffbd2e; }
      .dot-green { fill: #27c93f; }
      .brand { fill: #4ade80; font-family: 'Fira Code', 'JetBrains Mono', 'SF Mono', monospace; font-size: 42px; font-weight: 700; letter-spacing: 6px; }
      .tagline { fill: #555555; font-family: 'Fira Code', 'JetBrains Mono', 'SF Mono', monospace; font-size: 13px; }
      .cursor { fill: #4ade80; opacity: 0.8; }
      .xarc { fill: #333338; font-family: 'Fira Code', 'JetBrains Mono', 'SF Mono', monospace; font-size: 11px; }
      .node-structural { fill: none; stroke: #ba68c8; stroke-width: 1.5; }
      .node-person { fill: none; stroke: #fff176; stroke-width: 1.5; }
      .node-goal { fill: none; stroke: #aed581; stroke-width: 1.5; }
      .node-task { fill: none; stroke: #dce775; stroke-width: 1.2; }
      .node-blocker { fill: none; stroke: #e57373; stroke-width: 1.2; }
      .node-event { fill: none; stroke: #90a4ae; stroke-width: 1; }
      .edge { stroke: #333338; stroke-width: 0.8; fill: none; }
      .node-fill-s { fill: #ba68c8; opacity: 0.15; }
      .node-fill-p { fill: #fff176; opacity: 0.12; }
      .node-fill-g { fill: #aed581; opacity: 0.15; }
      .node-fill-t { fill: #dce775; opacity: 0.12; }
      .node-fill-b { fill: #e57373; opacity: 0.15; }
      .node-fill-e { fill: #90a4ae; opacity: 0.1; }
    </style>
  </defs>

  <!-- Background -->
  <rect width="800" height="260" rx="8" class="bg"/>

  <!-- Terminal chrome -->
  <rect y="0" width="800" height="32" rx="8" class="chrome-bg"/>
  <rect y="16" width="800" height="16" class="chrome-bg"/>
  <line x1="0" y1="32" x2="800" y2="32" stroke="#222225" stroke-width="1"/>
  <circle cx="20" cy="16" r="5" class="dot-red"/>
  <circle cx="38" cy="16" r="5" class="dot-yellow"/>
  <circle cx="56" cy="16" r="5" class="dot-green"/>

  <!-- Mini knowledge graph (left side, subtle) -->
  <!-- Edges first (behind nodes) -->
  <line x1="120" y1="130" x2="180" y2="100" class="edge"/>
  <line x1="120" y1="130" x2="170" y2="165" class="edge"/>
  <line x1="120" y1="130" x2="80" y2="95" class="edge"/>
  <line x1="120" y1="130" x2="75" y2="160" class="edge"/>
  <line x1="180" y1="100" x2="220" y2="75" class="edge"/>
  <line x1="180" y1="100" x2="230" y2="115" class="edge"/>
  <line x1="170" y1="165" x2="210" y2="190" class="edge"/>
  <line x1="170" y1="165" x2="215" y2="150" class="edge"/>
  <line x1="80" y1="95" x2="55" y2="65" class="edge"/>
  <line x1="80" y1="95" x2="40" y2="110" class="edge"/>
  <line x1="75" y1="160" x2="45" y2="190" class="edge"/>
  <line x1="75" y1="160" x2="40" y2="145" class="edge"/>
  <line x1="220" y1="75" x2="255" y2="60" class="edge"/>
  <line x1="230" y1="115" x2="265" y2="105" class="edge"/>
  <line x1="210" y1="190" x2="245" y2="205" class="edge"/>
  <line x1="215" y1="150" x2="255" y2="140" class="edge"/>

  <!-- Central node (project) -->
  <circle cx="120" cy="130" r="14" class="node-fill-s"/>
  <circle cx="120" cy="130" r="14" class="node-structural"/>

  <!-- Hop 1 nodes -->
  <circle cx="180" cy="100" r="10" class="node-fill-p"/>
  <circle cx="180" cy="100" r="10" class="node-person"/>
  <circle cx="170" cy="165" r="10" class="node-fill-g"/>
  <circle cx="170" cy="165" r="10" class="node-goal"/>
  <circle cx="80" cy="95" r="9" class="node-fill-p"/>
  <circle cx="80" cy="95" r="9" class="node-person"/>
  <circle cx="75" cy="160" r="10" class="node-fill-g"/>
  <circle cx="75" cy="160" r="10" class="node-goal"/>

  <!-- Hop 2 nodes -->
  <circle cx="220" cy="75" r="6" class="node-fill-t"/>
  <circle cx="220" cy="75" r="6" class="node-task"/>
  <circle cx="230" cy="115" r="6" class="node-fill-t"/>
  <circle cx="230" cy="115" r="6" class="node-task"/>
  <circle cx="210" cy="190" r="5" class="node-fill-b"/>
  <circle cx="210" cy="190" r="5" class="node-blocker"/>
  <circle cx="215" cy="150" r="6" class="node-fill-t"/>
  <circle cx="215" cy="150" r="6" class="node-task"/>
  <circle cx="55" cy="65" r="5" class="node-fill-e"/>
  <circle cx="55" cy="65" r="5" class="node-event"/>
  <circle cx="40" cy="110" r="5" class="node-fill-e"/>
  <circle cx="40" cy="110" r="5" class="node-event"/>
  <circle cx="45" cy="190" r="5" class="node-fill-e"/>
  <circle cx="45" cy="190" r="5" class="node-event"/>
  <circle cx="40" cy="145" r="6" class="node-fill-t"/>
  <circle cx="40" cy="145" r="6" class="node-task"/>

  <!-- Hop 3 (tiny, edge of visibility) -->
  <circle cx="255" cy="60" r="3" class="node-fill-e"/>
  <circle cx="255" cy="60" r="3" class="node-event"/>
  <circle cx="265" cy="105" r="3" class="node-fill-e"/>
  <circle cx="265" cy="105" r="3" class="node-event"/>
  <circle cx="245" cy="205" r="3" class="node-fill-e"/>
  <circle cx="245" cy="205" r="3" class="node-event"/>
  <circle cx="255" cy="140" r="3" class="node-fill-e"/>
  <circle cx="255" cy="140" r="3" class="node-event"/>

  <!-- Brand text (right of graph) -->
  <text x="480" y="118" text-anchor="middle" class="brand">X-BRAIN</text>
  <text x="480" y="148" text-anchor="middle" class="tagline">knowledge graph for your ai agent</text>

  <!-- Cursor blink -->
  <rect x="620" y="98" width="3" height="26" class="cursor">
    <animate attributeName="opacity" values="0.8;0;0.8" dur="1.2s" repeatCount="indefinite"/>
  </rect>

  <!-- X-Arc watermark -->
  <text x="775" y="248" text-anchor="end" class="xarc">X-ARC</text>
</svg>
